<svg width="40" height="40" viewBox="0 0 40 40" fill="none" xmlns="http://www.w3.org/2000/svg">
<path d="M0 20C0 8.95431 8.95431 0 20 0C31.0457 0 40 8.95431 40 20C40 31.0457 31.0457 40 20 40C8.95431 40 0 31.0457 0 20Z" fill="#007BB6"/>
<path fill-rule="evenodd" clip-rule="evenodd" d="M14.067 16.6001H9.79999V29.025H14.067V16.6001Z" fill="white"/>
<path fill-rule="evenodd" clip-rule="evenodd" d="M14.1755 11.3696C14.1478 9.99621 13.2489 8.9502 11.7891 8.9502C10.3293 8.9502 9.375 9.99621 9.375 11.3696C9.375 12.7145 10.3011 13.7906 11.7337 13.7906H11.761C13.2489 13.7906 14.1755 12.7145 14.1755 11.3696Z" fill="white"/>
<path fill-rule="evenodd" clip-rule="evenodd" d="M30.2036 21.9378C30.2036 18.1214 28.0979 16.3452 25.2892 16.3452C23.023 16.3452 22.0084 17.5512 21.4419 18.3972V16.6373H17.1731C17.2294 17.8032 17.1731 29.0622 17.1731 29.0622H21.4419V22.1231C21.4419 21.7518 21.4696 21.3813 21.5825 21.1155C21.8909 20.3736 22.5933 19.6055 23.7725 19.6055C25.3177 19.6055 25.9353 20.7449 25.9353 22.4145V29.0618H30.2034L30.2036 21.9378Z" fill="white"/>
</svg>
