<svg width="40" height="40" viewBox="0 0 40 40" fill="none" xmlns="http://www.w3.org/2000/svg">
<path d="M0 20C0 8.95431 8.95431 0 20 0C31.0457 0 40 8.95431 40 20C40 31.0457 31.0457 40 20 40C8.95431 40 0 31.0457 0 20Z" fill="#4099FF"/>
<path d="M16.8115 28.3798C24.1268 28.3798 28.1273 22.2384 28.1273 16.9127C28.1273 16.7382 28.1238 16.5646 28.1161 16.3917C28.8927 15.8228 29.5676 15.1129 30.1 14.3048C29.3874 14.6257 28.6205 14.8418 27.816 14.9393C28.6371 14.4403 29.2675 13.651 29.5649 12.7101C28.7965 13.1717 27.9456 13.5072 27.0395 13.6884C26.3137 12.905 25.2805 12.415 24.1364 12.415C21.9401 12.415 20.1591 14.2199 20.1591 16.4448C20.1591 16.761 20.194 17.0687 20.2622 17.3637C16.9568 17.1952 14.0258 15.5914 12.0642 13.1529C11.7226 13.7485 11.5257 14.4403 11.5257 15.1785C11.5257 16.5768 12.2278 17.8112 13.2955 18.5333C12.643 18.5129 12.03 18.3314 11.4943 18.0293C11.4937 18.0462 11.4937 18.0626 11.4937 18.0807C11.4937 20.0326 12.8646 21.6622 14.6844 22.0315C14.3502 22.1238 13.9986 22.1733 13.6357 22.1733C13.3798 22.1733 13.1305 22.1478 12.8882 22.1006C13.3945 23.702 14.8628 24.8673 16.6035 24.8998C15.2423 25.981 13.5275 26.625 11.6639 26.625C11.3433 26.625 11.0265 26.6065 10.7152 26.5692C12.4754 27.7125 14.5654 28.3796 16.8117 28.3796" fill="white"/>
</svg>
